# xmcd CD database file
#
# Track frame offsets:
#	150
#	2682
#	5847
#	21172
#	38635
#	57047
#	80604
#	100070
#	108117
#	129095
#	152817
#	156490
#	172675
#	190422
#	204440
#
# Disc length: 2977 seconds
#
# Revision: 0
# Processed by: cddbd v1.5.1PL0 Copyright (c) Steve Scherf et al.
# Submitted via: cdripper 1.0.10
#
DISCID=ad0b9f0f
DTITLE=Roosevelt Sykes and Victoria Spivey - Ann Arbor Blues and Jazz Festival, Vol. 3
DYEAR=1996
DGENRE=Blues
TTITLE0=Roland Young - Stage Introduction
TTITLE1=Roosevelt Sykes - Comments
TTITLE2=Roosevelt Sykes - Drivin' Wheel
TTITLE3=Roosevelt Sykes - Night Time Is the Right Time
TTITLE4=Roosevelt Sykes - Run This Boogie
TTITLE5=J. Primrose - St. James Infirmary
TTITLE6=Roosevelt Sykes - Dirty Mother for You
TTITLE7=Roosevelt Sykes - Looka Here (C'mon Let's Shake)
TTITLE8=Victoria Spivey - Black Snake Blues
TTITLE9=Victoria Spivey - Detroit Moan
TTITLE10=Victoria Spivey - Comments
TTITLE11=Victoria Spivey - You're a Rank Stud
TTITLE12=Clarence Williams - Organ Grinder Blues
TTITLE13=Victoria Spivey - I'm Tired
TTITLE14=Victoria Spivey - Brooklyn Bridge Blues
EXTD=YEAR: 1996
EXTT0=
EXTT1=
EXTT2=
EXTT3=
EXTT4=
EXTT5=
EXTT6=
EXTT7=
EXTT8=
EXTT9=
EXTT10=
EXTT11=
EXTT12=
EXTT13=
EXTT14=
PLAYORDER=
